# xmcd
#
# Track frame offsets:
# 150
# 11607
# 23427
# 34972
# 49393
# 62365
# 74792
# 87250
# 98987
# 112109
# 124653
# 137335
# 154411
# 168147
# 191754
# 206417
# 220579
# 235000
# 248716
# 264261
#
# Disc length: 3690 seconds
#
#
# Revision: 2
# Processed by: cddbd v1.5.2PL0 Copyright (c) Steve Scherf et al.
# Submitted via: FreeRIP 2.951 
#
DISCID=100e6814
DTITLE=The Supremes - The Supremes - Baby Love-The Collection
DYEAR=2012
DGENRE=Motown
TTITLE0=Where Did Our Love Go (Stereo Version)
TTITLE1=Baby Love (Juke Box Single Version)
TTITLE2=My World Is Empty Without You (Single Version - Mono)
TTITLE3=Sunset
TTITLE4=Remove This Doubt (Mono Version) - Diana Ross and The Supremes
TTITLE5=You Keep Me Hangin' On (Mono Version)
TTITLE6=You Can't Hurry Love
TTITLE7=Your Heart Belongs To Me (Single Version (Mono With Echo))
TTITLE8=Misery Makes Its Home In My Heart (Album Version) - Diana Ross and The Supremes
TTITLE9=How Long Has That Evening Train Been Gone (Album Version - Stereo) - Diana Ross and The Supremes
TTITLE10=Na Na Hey Hey Kiss Him Goodbye
TTITLE11=Stoned Love (Long Version)
TTITLE12=Nathan Jones (Single Version)
TTITLE13=It's Time To Break Down (Album Version)
TTITLE14=Bah-Bah-Bah - Diana Ross and The Supremes
TTITLE15=I'm Livin' In Shame (Second Version (Mono)) - Diana Ross and The Supremes
TTITLE16=Up The Ladder To The Roof (Single Version)
TTITLE17=Bad Weather (Single Version)
TTITLE18=Oh Be My Love
TTITLE19=My Favourite Things
EXTD=Audio CD (17. Juli 2012]\nErscheinungsdatum: 13. Juli 2012\nAnzahl Disks/Tonträger: 1\nFormat: Best of\nLabel: Spectrum (Universal Music]\nASIN: B006GSRG1G\nWeitere Ausgaben: Audio CD\nDurchschnittliche Kundenbewertung: 5.0 von 5 Sternen 1 Kundenrez
EXTD=ension\nAmazon Bestseller-Rang: Nr. 283.713 in Musik-CDs and Vinyl (Siehe Top 100 in Musik-CDs and Vinyl]\n    Nr. 8263 in Best Of\n    Nr. 8511 in R&B and Soul (Musik-CDs and Vinyl]\n    Nr. 134324 in Pop (Musik-CDs and Vinyl)
EXTT0=
EXTT1=
EXTT2=
EXTT3=
EXTT4=
EXTT5=
EXTT6=
EXTT7=
EXTT8=
EXTT9=
EXTT10=
EXTT11=
EXTT12=
EXTT13=
EXTT14=
EXTT15=
EXTT16=
EXTT17=
EXTT18=
EXTT19=
PLAYORDER=
